STARTFONT 2.1
COMMENT
COMMENT Converted from OpenType font "FreeUniversal-Regular.ttf" by "otf2bdf 3.0".
COMMENT
FONT -FreeType-FreeUniversal-Medium-R-Normal--15-150-72-72-P-71-ISO10646-1
SIZE 15 72 72
FONTBOUNDINGBOX 20 20 -1 -4
STARTPROPERTIES 19
FOUNDRY "FreeType"
FAMILY_NAME "FreeUniversal"
WEIGHT_NAME "Medium"
SLANT "R"
SETWIDTH_NAME "Normal"
ADD_STYLE_NAME ""
PIXEL_SIZE 15
POINT_SIZE 150
RESOLUTION_X 72
RESOLUTION_Y 72
SPACING "P"
AVERAGE_WIDTH 71
CHARSET_REGISTRY "ISO10646"
CHARSET_ENCODING "1"
FONT_ASCENT 15
FONT_DESCENT 3
COPYRIGHT "(FreeUniversal) Copyright (c) Stephen Wilson 2009    a modification of:    Original Font (SIL Sophia)  Copyright (c) SIL International, 1994-2008.    "
_OTF_FONTFILE "FreeUniversal-Regular.ttf"
_OTF_PSNAME "FreeUniversal-Regular"
ENDPROPERTIES
CHARS 243
STARTCHAR 0020
ENCODING 32
SWIDTH 333 0
DWIDTH 5 0
BBX 0 0 0 0
BITMAP
ENDCHAR
STARTCHAR 0021
ENCODING 33
SWIDTH 333 0
DWIDTH 5 0
BBX 1 11 2 0
BITMAP
80
80
80
80
80
80
80
80
80
00
80
ENDCHAR
STARTCHAR 0022
ENCODING 34
SWIDTH 466 0
DWIDTH 7 0
BBX 5 5 1 6
BITMAP
D8
D8
98
98
90
ENDCHAR
STARTCHAR 0023
ENCODING 35
SWIDTH 733 0
DWIDTH 11 0
BBX 9 11 1 0
BITMAP
0900
0900
1300
7F80
1200
2600
FF00
2400
6400
4800
4800
ENDCHAR
STARTCHAR 0024
ENCODING 36
SWIDTH 600 0
DWIDTH 9 0
BBX 7 14 1 -1
BITMAP
10
10
78
94
94
90
F0
7C
16
12
92
D6
7C
10
ENDCHAR
STARTCHAR 0025
ENCODING 37
SWIDTH 933 0
DWIDTH 14 0
BBX 12 11 1 0
BITMAP
7080
9880
8900
8900
9A00
74E0
05B0
0910
0910
1130
10E0
ENDCHAR
STARTCHAR 0026
ENCODING 38
SWIDTH 733 0
DWIDTH 11 0
BBX 9 11 1 0
BITMAP
3800
4400
4400
7800
7100
D900
8900
8F00
8600
C700
7D80
ENDCHAR
STARTCHAR 0027
ENCODING 39
SWIDTH 400 0
DWIDTH 6 0
BBX 2 5 2 6
BITMAP
C0
80
80
80
80
ENDCHAR
STARTCHAR 0028
ENCODING 40
SWIDTH 400 0
DWIDTH 6 0
BBX 2 14 2 -3
BITMAP
40
40
C0
80
80
80
80
80
80
80
80
C0
40
40
ENDCHAR
STARTCHAR 0029
ENCODING 41
SWIDTH 333 0
DWIDTH 5 0
BBX 2 14 2 -3
BITMAP
80
80
80
C0
40
40
40
40
40
40
C0
80
80
80
ENDCHAR
STARTCHAR 002A
ENCODING 42
SWIDTH 666 0
DWIDTH 10 0
BBX 6 5 2 5
BITMAP
48
30
FC
30
78
ENDCHAR
STARTCHAR 002B
ENCODING 43
SWIDTH 1000 0
DWIDTH 15 0
BBX 9 9 3 0
BITMAP
0800
0800
0800
0800
FF80
0800
0800
0800
0800
ENDCHAR
STARTCHAR 002C
ENCODING 44
SWIDTH 266 0
DWIDTH 4 0
BBX 2 4 1 -2
BITMAP
C0
C0
80
80
ENDCHAR
STARTCHAR 002D
ENCODING 45
SWIDTH 400 0
DWIDTH 6 0
BBX 4 1 1 3
BITMAP
F0
ENDCHAR
STARTCHAR 002E
ENCODING 46
SWIDTH 266 0
DWIDTH 4 0
BBX 1 2 2 0
BITMAP
80
80
ENDCHAR
STARTCHAR 002F
ENCODING 47
SWIDTH 400 0
DWIDTH 6 0
BBX 4 12 1 -1
BITMAP
10
10
10
20
20
20
40
40
40
40
80
80
ENDCHAR
STARTCHAR 0030
ENCODING 48
SWIDTH 533 0
DWIDTH 8 0
BBX 6 11 1 0
BITMAP
78
C8
8C
84
84
84
84
84
8C
C8
78
ENDCHAR
STARTCHAR 0031
ENCODING 49
SWIDTH 533 0
DWIDTH 8 0
BBX 4 11 2 0
BITMAP
30
70
D0
10
10
10
10
10
10
10
10
ENDCHAR
STARTCHAR 0032
ENCODING 50
SWIDTH 533 0
DWIDTH 8 0
BBX 6 11 1 0
BITMAP
78
CC
C4
04
0C
18
10
30
60
C0
FC
ENDCHAR
STARTCHAR 0033
ENCODING 51
SWIDTH 533 0
DWIDTH 8 0
BBX 7 11 0 0
BITMAP
3C
46
C2
06
18
04
06
02
C2
46
3C
ENDCHAR
STARTCHAR 0034
ENCODING 52
SWIDTH 533 0
DWIDTH 8 0
BBX 7 11 1 0
BITMAP
0C
1C
14
24
64
44
C4
FE
04
04
04
ENDCHAR
STARTCHAR 0035
ENCODING 53
SWIDTH 533 0
DWIDTH 8 0
BBX 6 11 1 0
BITMAP
F8
80
80
B8
CC
84
04
04
8C
C8
70
ENDCHAR
STARTCHAR 0036
ENCODING 54
SWIDTH 533 0
DWIDTH 8 0
BBX 7 11 1 0
BITMAP
3C
C6
86
80
BC
C6
82
82
82
C6
3C
ENDCHAR
STARTCHAR 0037
ENCODING 55
SWIDTH 533 0
DWIDTH 8 0
BBX 7 11 1 0
BITMAP
FE
06
06
04
0C
08
18
18
10
30
30
ENDCHAR
STARTCHAR 0038
ENCODING 56
SWIDTH 533 0
DWIDTH 8 0
BBX 6 11 1 0
BITMAP
78
CC
84
CC
70
C8
84
84
84
CC
78
ENDCHAR
STARTCHAR 0039
ENCODING 57
SWIDTH 533 0
DWIDTH 8 0
BBX 7 11 1 0
BITMAP
7C
C6
82
82
C6
7A
02
06
86
CC
78
ENDCHAR
STARTCHAR 003A
ENCODING 58
SWIDTH 266 0
DWIDTH 4 0
BBX 1 8 2 0
BITMAP
80
80
00
00
00
00
80
80
ENDCHAR
STARTCHAR 003B
ENCODING 59
SWIDTH 266 0
DWIDTH 4 0
BBX 2 10 1 -2
BITMAP
40
40
00
00
00
00
40
C0
C0
80
ENDCHAR
STARTCHAR 003C
ENCODING 60
SWIDTH 1000 0
DWIDTH 15 0
BBX 9 8 3 1
BITMAP
0080
0300
1C00
6000
8000
7000
0E00
0180
ENDCHAR
STARTCHAR 003D
ENCODING 61
SWIDTH 1000 0
DWIDTH 15 0
BBX 9 4 3 3
BITMAP
FF80
0000
0000
FF80
ENDCHAR
STARTCHAR 003E
ENCODING 62
SWIDTH 1000 0
DWIDTH 15 0
BBX 9 8 3 1
BITMAP
8000
6000
1C00
0300
0080
0700
3800
C000
ENDCHAR
STARTCHAR 003F
ENCODING 63
SWIDTH 533 0
DWIDTH 8 0
BBX 7 11 0 0
BITMAP
3C
C6
02
06
04
08
10
10
10
00
10
ENDCHAR
STARTCHAR 0040
ENCODING 64
SWIDTH 1000 0
DWIDTH 15 0
BBX 13 14 1 -3
BITMAP
0F80
3060
6010
CE90
9998
9088
9088
9088
9198
9990
CE60
6000
3000
0F80
ENDCHAR
STARTCHAR 0041
ENCODING 65
SWIDTH 733 0
DWIDTH 11 0
BBX 11 11 0 0
BITMAP
0600
0E00
0A00
1B00
1900
3180
3180
3FC0
60C0
4040
C060
ENDCHAR
STARTCHAR 0042
ENCODING 66
SWIDTH 666 0
DWIDTH 10 0
BBX 8 11 1 0
BITMAP
FC
86
82
82
86
FC
82
81
81
83
FE
ENDCHAR
STARTCHAR 0043
ENCODING 67
SWIDTH 666 0
DWIDTH 10 0
BBX 8 11 1 0
BITMAP
3E
63
C1
80
80
80
80
80
C1
43
3E
ENDCHAR
STARTCHAR 0044
ENCODING 68
SWIDTH 666 0
DWIDTH 10 0
BBX 8 11 1 0
BITMAP
F8
86
82
83
81
81
81
83
82
86
F8
ENDCHAR
STARTCHAR 0045
ENCODING 69
SWIDTH 600 0
DWIDTH 9 0
BBX 6 11 1 0
BITMAP
FC
80
80
80
80
FC
80
80
80
80
FC
ENDCHAR
STARTCHAR 0046
ENCODING 70
SWIDTH 533 0
DWIDTH 8 0
BBX 6 11 1 0
BITMAP
FC
80
80
80
80
FC
80
80
80
80
80
ENDCHAR
STARTCHAR 0047
ENCODING 71
SWIDTH 733 0
DWIDTH 11 0
BBX 9 11 1 0
BITMAP
1E00
6180
C080
8000
8000
8780
8080
8080
C080
6080
3F80
ENDCHAR
STARTCHAR 0048
ENCODING 72
SWIDTH 666 0
DWIDTH 10 0
BBX 8 11 1 0
BITMAP
81
81
81
81
81
FF
81
81
81
81
81
ENDCHAR
STARTCHAR 0049
ENCODING 73
SWIDTH 200 0
DWIDTH 3 0
BBX 1 11 1 0
BITMAP
80
80
80
80
80
80
80
80
80
80
80
ENDCHAR
STARTCHAR 004A
ENCODING 74
SWIDTH 533 0
DWIDTH 8 0
BBX 6 11 1 0
BITMAP
04
04
04
04
04
04
04
04
84
8C
78
ENDCHAR
STARTCHAR 004B
ENCODING 75
SWIDTH 600 0
DWIDTH 9 0
BBX 8 11 1 0
BITMAP
86
8C
98
B0
E0
E0
B0
98
8C
86
83
ENDCHAR
STARTCHAR 004C
ENCODING 76
SWIDTH 466 0
DWIDTH 7 0
BBX 6 11 1 0
BITMAP
80
80
80
80
80
80
80
80
80
80
FC
ENDCHAR
STARTCHAR 004D
ENCODING 77
SWIDTH 866 0
DWIDTH 13 0
BBX 11 11 1 0
BITMAP
C060
E0E0
E0A0
A1A0
B1A0
9120
9320
9A20
8A20
8E20
8420
ENDCHAR
STARTCHAR 004E
ENCODING 78
SWIDTH 666 0
DWIDTH 10 0
BBX 8 11 1 0
BITMAP
C1
E1
E1
B1
B1
99
89
8D
85
87
83
ENDCHAR
STARTCHAR 004F
ENCODING 79
SWIDTH 733 0
DWIDTH 11 0
BBX 9 11 1 0
BITMAP
3E00
6300
C180
8180
8080
8080
8080
8180
C100
6300
3E00
ENDCHAR
STARTCHAR 0050
ENCODING 80
SWIDTH 600 0
DWIDTH 9 0
BBX 7 11 1 0
BITMAP
FC
86
82
82
86
FC
80
80
80
80
80
ENDCHAR
STARTCHAR 0051
ENCODING 81
SWIDTH 800 0
DWIDTH 12 0
BBX 10 11 1 0
BITMAP
3E00
6300
C180
8180
8080
8080
8080
8180
C180
6300
3FC0
ENDCHAR
STARTCHAR 0052
ENCODING 82
SWIDTH 600 0
DWIDTH 9 0
BBX 7 11 1 0
BITMAP
FC
86
82
82
86
F8
84
86
86
82
82
ENDCHAR
STARTCHAR 0053
ENCODING 83
SWIDTH 666 0
DWIDTH 10 0
BBX 8 11 1 0
BITMAP
3C
C2
83
80
F0
7E
07
01
81
C3
7C
ENDCHAR
STARTCHAR 0054
ENCODING 84
SWIDTH 733 0
DWIDTH 11 0
BBX 9 11 1 0
BITMAP
FF80
0800
0800
0800
0800
0800
0800
0800
0800
0800
0800
ENDCHAR
STARTCHAR 0055
ENCODING 85
SWIDTH 666 0
DWIDTH 10 0
BBX 8 11 1 0
BITMAP
81
81
81
81
81
81
81
81
83
C2
3C
ENDCHAR
STARTCHAR 0056
ENCODING 86
SWIDTH 666 0
DWIDTH 10 0
BBX 9 11 0 0
BITMAP
C080
4180
6180
6100
2300
3300
1200
1600
1E00
0C00
0C00
ENDCHAR
STARTCHAR 0057
ENCODING 87
SWIDTH 1000 0
DWIDTH 15 0
BBX 14 11 0 0
BITMAP
C304
438C
438C
6688
2688
24D8
3450
3C50
1850
1870
1820
ENDCHAR
STARTCHAR 0058
ENCODING 88
SWIDTH 733 0
DWIDTH 11 0
BBX 9 11 1 0
BITMAP
C100
6300
2600
3400
1C00
1800
3C00
2600
6200
C300
8180
ENDCHAR
STARTCHAR 0059
ENCODING 89
SWIDTH 666 0
DWIDTH 10 0
BBX 9 11 1 0
BITMAP
C180
4100
6300
2600
3400
1C00
0800
0800
0800
0800
0800
ENDCHAR
STARTCHAR 005A
ENCODING 90
SWIDTH 666 0
DWIDTH 10 0
BBX 8 11 1 0
BITMAP
7F
03
06
06
0C
18
38
30
60
E0
FF
ENDCHAR
STARTCHAR 005B
ENCODING 91
SWIDTH 400 0
DWIDTH 6 0
BBX 3 14 2 -3
BITMAP
E0
80
80
80
80
80
80
80
80
80
80
80
80
E0
ENDCHAR
STARTCHAR 005C
ENCODING 92
SWIDTH 400 0
DWIDTH 6 0
BBX 4 12 1 -1
BITMAP
80
80
80
40
40
40
20
20
20
20
10
10
ENDCHAR
STARTCHAR 005D
ENCODING 93
SWIDTH 400 0
DWIDTH 6 0
BBX 3 14 1 -3
BITMAP
E0
20
20
20
20
20
20
20
20
20
20
20
20
E0
ENDCHAR
STARTCHAR 005E
ENCODING 94
SWIDTH 1000 0
DWIDTH 15 0
BBX 7 10 4 0
BITMAP
10
10
28
28
48
44
44
82
82
82
ENDCHAR
STARTCHAR 005F
ENCODING 95
SWIDTH 533 0
DWIDTH 8 0
BBX 8 1 0 -2
BITMAP
FF
ENDCHAR
STARTCHAR 0060
ENCODING 96
SWIDTH 200 0
DWIDTH 3 0
BBX 2 3 0 9
BITMAP
80
C0
40
ENDCHAR
STARTCHAR 0061
ENCODING 97
SWIDTH 533 0
DWIDTH 8 0
BBX 6 8 1 0
BITMAP
78
CC
04
7C
C4
84
8C
74
ENDCHAR
STARTCHAR 0062
ENCODING 98
SWIDTH 600 0
DWIDTH 9 0
BBX 7 11 1 0
BITMAP
80
80
80
BC
C6
86
82
82
86
C4
B8
ENDCHAR
STARTCHAR 0063
ENCODING 99
SWIDTH 533 0
DWIDTH 8 0
BBX 6 8 1 0
BITMAP
78
CC
84
80
80
84
CC
78
ENDCHAR
STARTCHAR 0064
ENCODING 100
SWIDTH 600 0
DWIDTH 9 0
BBX 7 11 1 0
BITMAP
02
02
02
7A
C6
86
82
82
86
C6
3A
ENDCHAR
STARTCHAR 0065
ENCODING 101
SWIDTH 533 0
DWIDTH 8 0
BBX 6 8 1 0
BITMAP
78
C4
84
FC
80
84
CC
78
ENDCHAR
STARTCHAR 0066
ENCODING 102
SWIDTH 466 0
DWIDTH 7 0
BBX 5 11 1 0
BITMAP
38
20
20
F8
20
20
20
20
20
20
20
ENDCHAR
STARTCHAR 0067
ENCODING 103
SWIDTH 600 0
DWIDTH 9 0
BBX 7 11 1 -3
BITMAP
7A
C6
86
82
82
86
C6
7A
06
C6
78
ENDCHAR
STARTCHAR 0068
ENCODING 104
SWIDTH 533 0
DWIDTH 8 0
BBX 6 11 1 0
BITMAP
80
80
80
B8
CC
84
84
84
84
84
84
ENDCHAR
STARTCHAR 0069
ENCODING 105
SWIDTH 200 0
DWIDTH 3 0
BBX 1 11 1 0
BITMAP
80
00
00
80
80
80
80
80
80
80
80
ENDCHAR
STARTCHAR 006A
ENCODING 106
SWIDTH 266 0
DWIDTH 4 0
BBX 2 14 1 -3
BITMAP
40
00
00
40
40
40
40
40
40
40
40
40
40
C0
ENDCHAR
STARTCHAR 006B
ENCODING 107
SWIDTH 466 0
DWIDTH 7 0
BBX 6 11 1 0
BITMAP
80
80
80
88
90
A0
E0
A0
B0
98
8C
ENDCHAR
STARTCHAR 006C
ENCODING 108
SWIDTH 200 0
DWIDTH 3 0
BBX 1 11 1 0
BITMAP
80
80
80
80
80
80
80
80
80
80
80
ENDCHAR
STARTCHAR 006D
ENCODING 109
SWIDTH 866 0
DWIDTH 13 0
BBX 11 8 1 0
BITMAP
B9C0
CE60
8420
8420
8420
8420
8420
8420
ENDCHAR
STARTCHAR 006E
ENCODING 110
SWIDTH 533 0
DWIDTH 8 0
BBX 6 8 1 0
BITMAP
B8
CC
84
84
84
84
84
84
ENDCHAR
STARTCHAR 006F
ENCODING 111
SWIDTH 600 0
DWIDTH 9 0
BBX 7 8 1 0
BITMAP
78
C4
86
82
82
86
C4
78
ENDCHAR
STARTCHAR 0070
ENCODING 112
SWIDTH 600 0
DWIDTH 9 0
BBX 7 11 1 -3
BITMAP
BC
C6
86
82
82
86
C6
BC
80
80
80
ENDCHAR
STARTCHAR 0071
ENCODING 113
SWIDTH 600 0
DWIDTH 9 0
BBX 7 11 1 -3
BITMAP
7A
C6
86
82
82
86
C6
7A
02
02
02
ENDCHAR
STARTCHAR 0072
ENCODING 114
SWIDTH 333 0
DWIDTH 5 0
BBX 4 8 1 0
BITMAP
F0
C0
80
80
80
80
80
80
ENDCHAR
STARTCHAR 0073
ENCODING 115
SWIDTH 533 0
DWIDTH 8 0
BBX 6 8 1 0
BITMAP
78
8C
80
F0
1C
04
8C
78
ENDCHAR
STARTCHAR 0074
ENCODING 116
SWIDTH 400 0
DWIDTH 6 0
BBX 4 10 1 0
BITMAP
20
20
F0
20
20
20
20
20
20
30
ENDCHAR
STARTCHAR 0075
ENCODING 117
SWIDTH 533 0
DWIDTH 8 0
BBX 6 8 1 0
BITMAP
84
84
84
84
84
84
CC
74
ENDCHAR
STARTCHAR 0076
ENCODING 118
SWIDTH 533 0
DWIDTH 8 0
BBX 8 8 0 0
BITMAP
C3
42
66
24
24
3C
18
18
ENDCHAR
STARTCHAR 0077
ENCODING 119
SWIDTH 800 0
DWIDTH 12 0
BBX 12 8 0 0
BITMAP
C630
4630
4F20
6920
2960
29C0
38C0
10C0
ENDCHAR
STARTCHAR 0078
ENCODING 120
SWIDTH 533 0
DWIDTH 8 0
BBX 7 8 1 0
BITMAP
C4
4C
78
30
30
78
CC
86
ENDCHAR
STARTCHAR 0079
ENCODING 121
SWIDTH 533 0
DWIDTH 8 0
BBX 8 11 0 -3
BITMAP
C3
42
66
26
34
3C
18
18
18
10
30
ENDCHAR
STARTCHAR 007A
ENCODING 122
SWIDTH 466 0
DWIDTH 7 0
BBX 5 8 1 0
BITMAP
F8
18
10
20
60
40
C0
F8
ENDCHAR
STARTCHAR 007B
ENCODING 123
SWIDTH 466 0
DWIDTH 7 0
BBX 5 15 1 -4
BITMAP
18
30
20
20
20
20
60
C0
60
20
20
20
20
30
18
ENDCHAR
STARTCHAR 007C
ENCODING 124
SWIDTH 400 0
DWIDTH 6 0
BBX 1 16 3 -4
BITMAP
80
80
80
80
80
80
80
80
80
80
80
80
80
80
80
80
ENDCHAR
STARTCHAR 007D
ENCODING 125
SWIDTH 466 0
DWIDTH 7 0
BBX 5 15 1 -4
BITMAP
C0
60
20
20
20
20
30
18
30
20
20
20
20
60
C0
ENDCHAR
STARTCHAR 007E
ENCODING 126
SWIDTH 533 0
DWIDTH 8 0
BBX 8 2 0 3
BITMAP
73
CE
ENDCHAR
STARTCHAR 00A0
ENCODING 160
SWIDTH 333 0
DWIDTH 5 0
BBX 0 0 0 0
BITMAP
ENDCHAR
STARTCHAR 00A1
ENCODING 161
SWIDTH 333 0
DWIDTH 5 0
BBX 1 11 2 -3
BITMAP
80
00
00
80
80
80
80
80
80
80
80
ENDCHAR
STARTCHAR 00A2
ENCODING 162
SWIDTH 533 0
DWIDTH 8 0
BBX 6 12 1 -2
BITMAP
08
08
78
DC
94
90
A0
A4
EC
78
40
40
ENDCHAR
STARTCHAR 00A3
ENCODING 163
SWIDTH 600 0
DWIDTH 9 0
BBX 7 11 1 0
BITMAP
3C
66
40
40
F8
40
40
40
40
40
FE
ENDCHAR
STARTCHAR 00A4
ENCODING 164
SWIDTH 666 0
DWIDTH 10 0
BBX 8 9 1 2
BITMAP
81
5A
24
42
42
42
24
5A
81
ENDCHAR
STARTCHAR 00A5
ENCODING 165
SWIDTH 600 0
DWIDTH 9 0
BBX 8 11 0 0
BITMAP
41
63
22
E7
14
1C
FF
08
08
08
08
ENDCHAR
STARTCHAR 00A6
ENCODING 166
SWIDTH 400 0
DWIDTH 6 0
BBX 1 14 3 -3
BITMAP
80
80
80
80
80
80
00
00
80
80
80
80
80
80
ENDCHAR
STARTCHAR 00A7
ENCODING 167
SWIDTH 466 0
DWIDTH 7 0
BBX 5 14 1 -3
BITMAP
78
88
80
C0
70
D8
88
98
F0
30
18
08
18
F0
ENDCHAR
STARTCHAR 00A8
ENCODING 168
SWIDTH 266 0
DWIDTH 4 0
BBX 4 1 0 10
BITMAP
90
ENDCHAR
STARTCHAR 00A9
ENCODING 169
SWIDTH 866 0
DWIDTH 13 0
BBX 11 11 1 0
BITMAP
1F00
7F80
7340
E160
A020
A020
A120
B360
5E40
6080
1F00
ENDCHAR
STARTCHAR 00AA
ENCODING 170
SWIDTH 400 0
DWIDTH 6 0
BBX 6 8 0 3
BITMAP
38
48
78
48
58
68
00
FC
ENDCHAR
STARTCHAR 00AB
ENCODING 171
SWIDTH 533 0
DWIDTH 8 0
BBX 6 6 1 1
BITMAP
24
48
D8
D8
48
24
ENDCHAR
STARTCHAR 00AC
ENCODING 172
SWIDTH 666 0
DWIDTH 10 0
BBX 8 3 1 4
BITMAP
FF
01
01
ENDCHAR
STARTCHAR 00AE
ENCODING 174
SWIDTH 866 0
DWIDTH 13 0
BBX 11 11 1 0
BITMAP
1F00
7F80
5140
D160
9E20
9320
9120
D160
4040
6180
1F00
ENDCHAR
STARTCHAR 00AF
ENCODING 175
SWIDTH 266 0
DWIDTH 4 0
BBX 4 1 0 10
BITMAP
F0
ENDCHAR
STARTCHAR 00B0
ENCODING 176
SWIDTH 333 0
DWIDTH 5 0
BBX 3 4 1 7
BITMAP
E0
A0
A0
E0
ENDCHAR
STARTCHAR 00B1
ENCODING 177
SWIDTH 1000 0
DWIDTH 15 0
BBX 9 10 3 0
BITMAP
0800
0800
0800
FF80
0800
0800
0800
0000
0000
FF80
ENDCHAR
STARTCHAR 00B2
ENCODING 178
SWIDTH 400 0
DWIDTH 6 0
BBX 4 6 1 5
BITMAP
70
90
30
60
C0
F0
ENDCHAR
STARTCHAR 00B3
ENCODING 179
SWIDTH 400 0
DWIDTH 6 0
BBX 5 6 0 5
BITMAP
78
C8
18
30
88
70
ENDCHAR
STARTCHAR 00B4
ENCODING 180
SWIDTH 200 0
DWIDTH 3 0
BBX 3 3 1 9
BITMAP
60
40
80
ENDCHAR
STARTCHAR 00B6
ENCODING 182
SWIDTH 600 0
DWIDTH 9 0
BBX 7 14 1 -3
BITMAP
7E
F4
F4
F4
F4
74
14
14
14
14
14
14
14
14
ENDCHAR
STARTCHAR 00B7
ENCODING 183
SWIDTH 266 0
DWIDTH 4 0
BBX 1 2 2 4
BITMAP
80
80
ENDCHAR
STARTCHAR 00B8
ENCODING 184
SWIDTH 333 0
DWIDTH 5 0
BBX 4 3 1 -3
BITMAP
30
10
E0
ENDCHAR
STARTCHAR 00B9
ENCODING 185
SWIDTH 333 0
DWIDTH 5 0
BBX 3 6 1 5
BITMAP
60
A0
20
20
20
20
ENDCHAR
STARTCHAR 00BA
ENCODING 186
SWIDTH 466 0
DWIDTH 7 0
BBX 5 8 1 3
BITMAP
70
D8
88
88
D8
70
00
F8
ENDCHAR
STARTCHAR 00BB
ENCODING 187
SWIDTH 533 0
DWIDTH 8 0
BBX 6 6 1 1
BITMAP
D8
48
24
24
48
D8
ENDCHAR
STARTCHAR 00BC
ENCODING 188
SWIDTH 800 0
DWIDTH 12 0
BBX 10 11 1 0
BITMAP
6100
A200
2200
2400
2400
2980
0980
1280
33C0
2080
6080
ENDCHAR
STARTCHAR 00BD
ENCODING 189
SWIDTH 866 0
DWIDTH 13 0
BBX 11 11 1 0
BITMAP
6080
A100
2200
2200
2400
25C0
0920
1860
10C0
2180
61E0
ENDCHAR
STARTCHAR 00BE
ENCODING 190
SWIDTH 800 0
DWIDTH 12 0
BBX 11 11 0 0
BITMAP
7880
0980
3100
1B00
8A00
74C0
04C0
0940
0BE0
1040
3040
ENDCHAR
STARTCHAR 00BF
ENCODING 191
SWIDTH 533 0
DWIDTH 8 0
BBX 6 11 1 -3
BITMAP
10
00
10
10
30
60
C0
80
84
EC
78
ENDCHAR
STARTCHAR 00C0
ENCODING 192
SWIDTH 733 0
DWIDTH 11 0
BBX 11 16 0 0
BITMAP
1800
0800
0400
0000
0000
0600
0E00
0A00
1B00
1900
3180
3180
3FC0
60C0
4040
C060
ENDCHAR
STARTCHAR 00C1
ENCODING 193
SWIDTH 733 0
DWIDTH 11 0
BBX 11 16 0 0
BITMAP
0300
0200
0400
0000
0000
0600
0E00
0A00
1B00
1900
3180
3180
3FC0
60C0
4040
C060
ENDCHAR
STARTCHAR 00C2
ENCODING 194
SWIDTH 733 0
DWIDTH 11 0
BBX 11 16 0 0
BITMAP
0400
0E00
0900
0000
0000
0600
0E00
0A00
1B00
1900
3180
3180
3FC0
60C0
4040
C060
ENDCHAR
STARTCHAR 00C3
ENCODING 195
SWIDTH 733 0
DWIDTH 11 0
BBX 11 15 0 0
BITMAP
0D00
1600
0000
0000
0600
0E00
0A00
1B00
1900
3180
3180
3FC0
60C0
4040
C060
ENDCHAR
STARTCHAR 00C4
ENCODING 196
SWIDTH 733 0
DWIDTH 11 0
BBX 11 14 0 0
BITMAP
0900
0000
0000
0600
0E00
0B00
1B00
1900
1180
3080
3FC0
60C0
4060
C060
ENDCHAR
STARTCHAR 00C5
ENCODING 197
SWIDTH 733 0
DWIDTH 11 0
BBX 11 16 0 0
BITMAP
0E00
0A00
0E00
0000
0000
0400
0C00
0A00
0A00
1100
1100
3180
3F80
60C0
4040
C060
ENDCHAR
STARTCHAR 00C6
ENCODING 198
SWIDTH 933 0
DWIDTH 14 0
BBX 13 11 0 0
BITMAP
03F8
0500
0D00
0D00
1900
19F8
3100
3F00
6100
4100
C1F8
ENDCHAR
STARTCHAR 00C7
ENCODING 199
SWIDTH 666 0
DWIDTH 10 0
BBX 8 15 1 -4
BITMAP
3E
61
C1
80
80
80
80
80
C1
43
3E
0C
06
02
1C
ENDCHAR
STARTCHAR 00C8
ENCODING 200
SWIDTH 600 0
DWIDTH 9 0
BBX 6 16 1 0
BITMAP
40
20
10
00
00
FC
80
80
80
80
FC
80
80
80
80
FC
ENDCHAR
STARTCHAR 00C9
ENCODING 201
SWIDTH 600 0
DWIDTH 9 0
BBX 6 16 1 0
BITMAP
08
10
10
00
00
FC
80
80
80
80
FC
80
80
80
80
FC
ENDCHAR
STARTCHAR 00CA
ENCODING 202
SWIDTH 600 0
DWIDTH 9 0
BBX 6 16 1 0
BITMAP
30
30
48
00
00
FC
80
80
80
80
FC
80
80
80
80
FC
ENDCHAR
STARTCHAR 00CB
ENCODING 203
SWIDTH 533 0
DWIDTH 8 0
BBX 6 15 1 0
BITMAP
48
00
00
00
FC
80
80
80
80
FC
80
80
80
80
FC
ENDCHAR
STARTCHAR 00CC
ENCODING 204
SWIDTH 200 0
DWIDTH 3 0
BBX 3 16 -1 0
BITMAP
C0
40
20
00
00
20
20
20
20
20
20
20
20
20
20
20
ENDCHAR
STARTCHAR 00CD
ENCODING 205
SWIDTH 200 0
DWIDTH 3 0
BBX 3 16 1 0
BITMAP
60
C0
80
00
00
80
80
80
80
80
80
80
80
80
80
80
ENDCHAR
STARTCHAR 00CE
ENCODING 206
SWIDTH 200 0
DWIDTH 3 0
BBX 3 16 0 0
BITMAP
40
E0
A0
00
00
40
40
40
40
40
40
40
40
40
40
40
ENDCHAR
STARTCHAR 00CF
ENCODING 207
SWIDTH 266 0
DWIDTH 4 0
BBX 4 14 0 0
BITMAP
90
00
00
40
40
40
40
40
40
40
40
40
40
40
ENDCHAR
STARTCHAR 00D0
ENCODING 208
SWIDTH 733 0
DWIDTH 11 0
BBX 10 11 0 0
BITMAP
3E00
2180
2080
20C0
2040
F840
2040
20C0
2080
2180
3E00
ENDCHAR
STARTCHAR 00D1
ENCODING 209
SWIDTH 666 0
DWIDTH 10 0
BBX 8 15 1 0
BITMAP
34
2C
00
00
C1
E1
E1
B1
B1
99
89
8D
85
87
83
ENDCHAR
STARTCHAR 00D2
ENCODING 210
SWIDTH 733 0
DWIDTH 11 0
BBX 9 16 1 0
BITMAP
3000
1000
0800
0000
0000
3E00
6300
C180
8180
8080
8080
8080
8180
C100
6300
3E00
ENDCHAR
STARTCHAR 00D3
ENCODING 211
SWIDTH 733 0
DWIDTH 11 0
BBX 9 16 1 0
BITMAP
0400
0C00
0800
0000
0000
3E00
6300
C180
8180
8080
8080
8080
8180
C100
6300
3E00
ENDCHAR
STARTCHAR 00D4
ENCODING 212
SWIDTH 733 0
DWIDTH 11 0
BBX 9 16 1 0
BITMAP
0800
1C00
1400
0000
0000
3E00
6300
C180
8180
8080
8080
8080
8180
C100
6300
3E00
ENDCHAR
STARTCHAR 00D5
ENCODING 213
SWIDTH 733 0
DWIDTH 11 0
BBX 9 15 1 0
BITMAP
1800
2C00
0000
0000
3E00
6300
C180
8080
8080
8080
8080
8180
C100
7700
3E00
ENDCHAR
STARTCHAR 00D6
ENCODING 214
SWIDTH 733 0
DWIDTH 11 0
BBX 9 15 1 0
BITMAP
1200
0000
0000
0000
3E00
6300
C180
8180
8080
8080
8080
8180
C100
6300
3E00
ENDCHAR
STARTCHAR 00D7
ENCODING 215
SWIDTH 1000 0
DWIDTH 15 0
BBX 7 7 4 1
BITMAP
82
44
28
10
28
44
82
ENDCHAR
STARTCHAR 00D8
ENCODING 216
SWIDTH 733 0
DWIDTH 11 0
BBX 9 13 1 -1
BITMAP
0080
3F00
6300
C380
8680
8C80
8880
9880
B180
E100
6300
FE00
8000
ENDCHAR
STARTCHAR 00D9
ENCODING 217
SWIDTH 666 0
DWIDTH 10 0
BBX 8 16 1 0
BITMAP
20
10
18
00
00
81
81
81
81
81
81
81
81
C3
E6
3C
ENDCHAR
STARTCHAR 00DA
ENCODING 218
SWIDTH 666 0
DWIDTH 10 0
BBX 8 16 1 0
BITMAP
0C
08
10
00
00
81
81
81
81
81
81
81
81
C3
E6
3C
ENDCHAR
STARTCHAR 00DB
ENCODING 219
SWIDTH 666 0
DWIDTH 10 0
BBX 8 16 1 0
BITMAP
18
18
24
00
00
81
81
81
81
81
81
81
81
C3
E6
3C
ENDCHAR
STARTCHAR 00DC
ENCODING 220
SWIDTH 666 0
DWIDTH 10 0
BBX 8 15 1 0
BITMAP
24
00
00
00
81
81
81
81
81
81
81
81
83
C2
3C
ENDCHAR
STARTCHAR 00DD
ENCODING 221
SWIDTH 666 0
DWIDTH 10 0
BBX 9 16 1 0
BITMAP
0600
0400
0800
0000
0000
C180
4100
6300
2600
3400
1C00
0800
0800
0800
0800
0800
ENDCHAR
STARTCHAR 00DE
ENCODING 222
SWIDTH 600 0
DWIDTH 9 0
BBX 7 11 1 0
BITMAP
80
80
FC
86
82
82
86
FC
80
80
80
ENDCHAR
STARTCHAR 00DF
ENCODING 223
SWIDTH 533 0
DWIDTH 8 0
BBX 7 11 1 0
BITMAP
78
CC
84
8C
90
90
9C
86
82
B2
9C
ENDCHAR
STARTCHAR 00E0
ENCODING 224
SWIDTH 533 0
DWIDTH 8 0
BBX 6 12 1 0
BITMAP
20
10
10
00
78
CC
04
7C
C4
84
8C
74
ENDCHAR
STARTCHAR 00E1
ENCODING 225
SWIDTH 533 0
DWIDTH 8 0
BBX 6 13 1 0
BITMAP
18
10
30
20
00
78
CC
04
7C
C4
84
8C
74
ENDCHAR
STARTCHAR 00E2
ENCODING 226
SWIDTH 533 0
DWIDTH 8 0
BBX 6 12 1 0
BITMAP
30
68
48
00
78
CC
04
7C
C4
84
8C
74
ENDCHAR
STARTCHAR 00E3
ENCODING 227
SWIDTH 533 0
DWIDTH 8 0
BBX 6 11 1 0
BITMAP
78
00
00
78
CC
04
7C
C4
84
8C
74
ENDCHAR
STARTCHAR 00E4
ENCODING 228
SWIDTH 533 0
DWIDTH 8 0
BBX 6 11 1 0
BITMAP
48
00
00
78
CC
04
7C
C4
84
8C
74
ENDCHAR
STARTCHAR 00E5
ENCODING 229
SWIDTH 533 0
DWIDTH 8 0
BBX 6 13 1 0
BITMAP
30
48
48
30
00
78
C4
04
7C
C4
84
8C
74
ENDCHAR
STARTCHAR 00E6
ENCODING 230
SWIDTH 866 0
DWIDTH 13 0
BBX 12 8 1 0
BITMAP
FBC0
8A20
0430
7FF0
C400
8C30
CA60
71C0
ENDCHAR
STARTCHAR 00E7
ENCODING 231
SWIDTH 533 0
DWIDTH 8 0
BBX 6 12 1 -4
BITMAP
78
CC
84
80
80
84
CC
78
30
18
08
30
ENDCHAR
STARTCHAR 00E8
ENCODING 232
SWIDTH 533 0
DWIDTH 8 0
BBX 6 13 1 0
BITMAP
40
20
20
10
00
78
C4
84
FC
80
84
CC
78
ENDCHAR
STARTCHAR 00E9
ENCODING 233
SWIDTH 533 0
DWIDTH 8 0
BBX 6 13 1 0
BITMAP
08
10
10
20
00
78
C4
84
FC
80
84
CC
78
ENDCHAR
STARTCHAR 00EA
ENCODING 234
SWIDTH 533 0
DWIDTH 8 0
BBX 6 12 1 0
BITMAP
30
68
48
00
78
C4
84
FC
80
84
CC
78
ENDCHAR
STARTCHAR 00EB
ENCODING 235
SWIDTH 533 0
DWIDTH 8 0
BBX 6 11 1 0
BITMAP
48
00
00
78
CC
84
FC
80
84
CC
78
ENDCHAR
STARTCHAR 00EC
ENCODING 236
SWIDTH 200 0
DWIDTH 3 0
BBX 2 12 0 0
BITMAP
80
40
40
00
40
40
40
40
40
40
40
40
ENDCHAR
STARTCHAR 00ED
ENCODING 237
SWIDTH 200 0
DWIDTH 3 0
BBX 3 12 0 0
BITMAP
20
40
80
00
40
40
40
40
40
40
40
40
ENDCHAR
STARTCHAR 00EE
ENCODING 238
SWIDTH 200 0
DWIDTH 3 0
BBX 5 12 -1 0
BITMAP
70
50
88
00
20
20
20
20
20
20
20
20
ENDCHAR
STARTCHAR 00EF
ENCODING 239
SWIDTH 266 0
DWIDTH 4 0
BBX 4 11 0 0
BITMAP
90
00
00
40
40
40
40
40
40
40
40
ENDCHAR
STARTCHAR 00F0
ENCODING 240
SWIDTH 600 0
DWIDTH 9 0
BBX 7 11 1 0
BITMAP
68
70
88
7C
C6
86
82
82
86
C4
78
ENDCHAR
STARTCHAR 00F1
ENCODING 241
SWIDTH 533 0
DWIDTH 8 0
BBX 6 11 1 0
BITMAP
78
00
00
B8
CC
84
84
84
84
84
84
ENDCHAR
STARTCHAR 00F2
ENCODING 242
SWIDTH 600 0
DWIDTH 9 0
BBX 7 13 1 0
BITMAP
60
20
10
10
00
78
C4
86
82
82
86
C4
78
ENDCHAR
STARTCHAR 00F3
ENCODING 243
SWIDTH 600 0
DWIDTH 9 0
BBX 7 13 1 0
BITMAP
0C
18
10
20
00
78
C4
86
82
82
86
C4
78
ENDCHAR
STARTCHAR 00F4
ENCODING 244
SWIDTH 600 0
DWIDTH 9 0
BBX 7 12 1 0
BITMAP
38
28
44
00
78
C4
86
82
82
86
C4
78
ENDCHAR
STARTCHAR 00F5
ENCODING 245
SWIDTH 600 0
DWIDTH 9 0
BBX 7 11 1 0
BITMAP
78
00
00
78
C4
86
82
82
86
C4
78
ENDCHAR
STARTCHAR 00F6
ENCODING 246
SWIDTH 600 0
DWIDTH 9 0
BBX 7 11 1 0
BITMAP
48
00
00
78
C4
86
82
82
86
C4
78
ENDCHAR
STARTCHAR 00F7
ENCODING 247
SWIDTH 1000 0
DWIDTH 15 0
BBX 9 7 3 1
BITMAP
0800
0800
0000
FF80
0000
0800
0800
ENDCHAR
STARTCHAR 00F8
ENCODING 248
SWIDTH 600 0
DWIDTH 9 0
BBX 8 10 0 -1
BITMAP
01
3E
62
47
49
59
53
62
7C
C0
ENDCHAR
STARTCHAR 00F9
ENCODING 249
SWIDTH 533 0
DWIDTH 8 0
BBX 6 13 1 0
BITMAP
40
20
20
10
00
84
84
84
84
84
84
CC
74
ENDCHAR
STARTCHAR 00FA
ENCODING 250
SWIDTH 533 0
DWIDTH 8 0
BBX 6 13 1 0
BITMAP
18
10
30
20
00
84
84
84
84
84
84
CC
74
ENDCHAR
STARTCHAR 00FB
ENCODING 251
SWIDTH 533 0
DWIDTH 8 0
BBX 6 12 1 0
BITMAP
30
50
48
00
84
84
84
84
84
84
CC
74
ENDCHAR
STARTCHAR 00FC
ENCODING 252
SWIDTH 533 0
DWIDTH 8 0
BBX 6 11 1 0
BITMAP
48
00
00
84
84
84
84
84
84
CC
74
ENDCHAR
STARTCHAR 00FD
ENCODING 253
SWIDTH 533 0
DWIDTH 8 0
BBX 8 15 0 -3
BITMAP
04
08
10
00
C3
42
66
26
34
3C
18
18
18
50
70
ENDCHAR
STARTCHAR 00FE
ENCODING 254
SWIDTH 600 0
DWIDTH 9 0
BBX 7 14 1 -3
BITMAP
80
80
80
BC
C6
86
82
82
86
C6
BC
80
80
80
ENDCHAR
STARTCHAR 00FF
ENCODING 255
SWIDTH 533 0
DWIDTH 8 0
BBX 8 14 0 -3
BITMAP
24
00
00
C3
42
66
24
24
3C
18
18
18
10
30
ENDCHAR
STARTCHAR 0131
ENCODING 305
SWIDTH 200 0
DWIDTH 3 0
BBX 1 8 1 0
BITMAP
80
80
80
80
80
80
80
80
ENDCHAR
STARTCHAR 0141
ENCODING 321
SWIDTH 533 0
DWIDTH 8 0
BBX 8 11 0 0
BITMAP
20
20
28
38
30
60
E0
A0
20
20
3F
ENDCHAR
STARTCHAR 0142
ENCODING 322
SWIDTH 333 0
DWIDTH 5 0
BBX 4 11 0 0
BITMAP
20
20
20
30
30
60
E0
20
20
20
20
ENDCHAR
STARTCHAR 0152
ENCODING 338
SWIDTH 1000 0
DWIDTH 15 0
BBX 13 11 1 0
BITMAP
3FF8
6100
C100
8100
8100
81F8
8100
8100
C100
6300
3FF8
ENDCHAR
STARTCHAR 0153
ENCODING 339
SWIDTH 933 0
DWIDTH 14 0
BBX 12 8 1 0
BITMAP
79E0
CE30
8610
87F0
8600
8610
CE30
79E0
ENDCHAR
STARTCHAR 0160
ENCODING 352
SWIDTH 666 0
DWIDTH 10 0
BBX 8 16 1 0
BITMAP
24
2C
18
00
00
3C
C3
80
80
F0
7E
07
01
81
C3
7C
ENDCHAR
STARTCHAR 0161
ENCODING 353
SWIDTH 533 0
DWIDTH 8 0
BBX 6 12 1 0
BITMAP
48
70
30
00
78
84
80
F0
1C
04
8C
78
ENDCHAR
STARTCHAR 0178
ENCODING 376
SWIDTH 666 0
DWIDTH 10 0
BBX 9 15 0 0
BITMAP
1200
0000
0000
0000
C080
6180
2300
3200
1600
1C00
0800
0800
0800
0800
0800
ENDCHAR
STARTCHAR 017D
ENCODING 381
SWIDTH 666 0
DWIDTH 10 0
BBX 8 16 1 0
BITMAP
24
14
18
00
00
7F
03
06
06
0C
18
38
30
60
E0
FF
ENDCHAR
STARTCHAR 017E
ENCODING 382
SWIDTH 466 0
DWIDTH 7 0
BBX 5 12 1 0
BITMAP
90
60
60
00
F8
18
10
20
60
40
C0
F8
ENDCHAR
STARTCHAR 0192
ENCODING 402
SWIDTH 533 0
DWIDTH 8 0
BBX 9 14 -1 -3
BITMAP
0380
0600
0400
1F00
0C00
0800
0800
1800
1800
1000
1000
3000
2000
E000
ENDCHAR
STARTCHAR 02C6
ENCODING 710
SWIDTH 266 0
DWIDTH 4 0
BBX 4 3 0 9
BITMAP
60
70
90
ENDCHAR
STARTCHAR 02C7
ENCODING 711
SWIDTH 266 0
DWIDTH 4 0
BBX 4 3 0 9
BITMAP
90
50
60
ENDCHAR
STARTCHAR 02D8
ENCODING 728
SWIDTH 266 0
DWIDTH 4 0
BBX 4 2 0 9
BITMAP
90
60
ENDCHAR
STARTCHAR 02D9
ENCODING 729
SWIDTH 66 0
DWIDTH 1 0
BBX 1 1 0 10
BITMAP
80
ENDCHAR
STARTCHAR 02DA
ENCODING 730
SWIDTH 200 0
DWIDTH 3 0
BBX 3 4 0 9
BITMAP
C0
A0
A0
E0
ENDCHAR
STARTCHAR 02DB
ENCODING 731
SWIDTH 200 0
DWIDTH 3 0
BBX 2 4 0 -3
BITMAP
40
80
80
C0
ENDCHAR
STARTCHAR 02DC
ENCODING 732
SWIDTH 266 0
DWIDTH 4 0
BBX 4 2 0 9
BITMAP
D0
B0
ENDCHAR
STARTCHAR 02DD
ENCODING 733
SWIDTH 333 0
DWIDTH 5 0
BBX 4 3 0 9
BITMAP
50
50
A0
ENDCHAR
STARTCHAR 0394
ENCODING 916
SWIDTH 666 0
DWIDTH 10 0
BBX 9 11 0 0
BITMAP
0800
0C00
0C00
1600
1600
2200
2300
4300
4180
4180
FF80
ENDCHAR
STARTCHAR 03A9
ENCODING 937
SWIDTH 866 0
DWIDTH 13 0
BBX 11 11 1 0
BITMAP
1E00
6180
C0C0
C0C0
C0C0
C0C0
C0C0
6080
1320
9260
F3E0
ENDCHAR
STARTCHAR 03BC
ENCODING 956
SWIDTH 600 0
DWIDTH 9 0
BBX 8 11 1 -3
BITMAP
84
84
84
84
84
84
CC
F7
80
80
80
ENDCHAR
STARTCHAR 03C0
ENCODING 960
SWIDTH 533 0
DWIDTH 8 0
BBX 8 8 0 0
BITMAP
7F
A4
24
24
24
24
67
66
ENDCHAR
STARTCHAR 2013
ENCODING 8211
SWIDTH 533 0
DWIDTH 8 0
BBX 8 1 0 3
BITMAP
FF
ENDCHAR
STARTCHAR 2014
ENCODING 8212
SWIDTH 1000 0
DWIDTH 15 0
BBX 15 1 0 3
BITMAP
FFFE
ENDCHAR
STARTCHAR 2018
ENCODING 8216
SWIDTH 266 0
DWIDTH 4 0
BBX 2 4 1 7
BITMAP
40
40
C0
80
ENDCHAR
STARTCHAR 2019
ENCODING 8217
SWIDTH 266 0
DWIDTH 4 0
BBX 2 4 1 7
BITMAP
C0
C0
80
80
ENDCHAR
STARTCHAR 201A
ENCODING 8218
SWIDTH 266 0
DWIDTH 4 0
BBX 2 4 1 -2
BITMAP
C0
C0
80
80
ENDCHAR
STARTCHAR 201C
ENCODING 8220
SWIDTH 466 0
DWIDTH 7 0
BBX 5 4 1 7
BITMAP
48
58
D0
B0
ENDCHAR
STARTCHAR 201D
ENCODING 8221
SWIDTH 466 0
DWIDTH 7 0
BBX 5 4 1 7
BITMAP
D8
D0
90
B0
ENDCHAR
STARTCHAR 201E
ENCODING 8222
SWIDTH 466 0
DWIDTH 7 0
BBX 5 4 1 -2
BITMAP
D8
D0
90
B0
ENDCHAR
STARTCHAR 2020
ENCODING 8224
SWIDTH 600 0
DWIDTH 9 0
BBX 7 14 1 -3
BITMAP
10
10
10
FE
10
10
10
10
10
10
10
10
10
10
ENDCHAR
STARTCHAR 2021
ENCODING 8225
SWIDTH 600 0
DWIDTH 9 0
BBX 7 14 1 -3
BITMAP
10
10
10
FE
10
10
10
10
10
FE
10
10
10
10
ENDCHAR
STARTCHAR 2022
ENCODING 8226
SWIDTH 333 0
DWIDTH 5 0
BBX 3 4 1 4
BITMAP
40
E0
E0
40
ENDCHAR
STARTCHAR 2026
ENCODING 8230
SWIDTH 1000 0
DWIDTH 15 0
BBX 13 2 1 0
BITMAP
8208
8208
ENDCHAR
STARTCHAR 2030
ENCODING 8240
SWIDTH 1333 0
DWIDTH 20 0
BBX 18 11 1 0
BITMAP
708000
988000
890000
890000
9A0000
74E380
05B6C0
091440
091440
1134C0
10E380
ENDCHAR
STARTCHAR 2039
ENCODING 8249
SWIDTH 333 0
DWIDTH 5 0
BBX 3 6 1 1
BITMAP
20
40
C0
C0
40
20
ENDCHAR
STARTCHAR 203A
ENCODING 8250
SWIDTH 333 0
DWIDTH 5 0
BBX 3 6 1 1
BITMAP
C0
40
20
20
40
C0
ENDCHAR
STARTCHAR 2044
ENCODING 8260
SWIDTH 533 0
DWIDTH 8 0
BBX 7 11 1 0
BITMAP
02
04
08
08
10
10
20
20
40
80
80
ENDCHAR
STARTCHAR 2122
ENCODING 8482
SWIDTH 666 0
DWIDTH 10 0
BBX 8 4 1 7
BITMAP
E9
5B
57
55
ENDCHAR
STARTCHAR 2202
ENCODING 8706
SWIDTH 533 0
DWIDTH 8 0
BBX 6 13 1 -1
BITMAP
70
08
08
04
04
04
74
CC
84
8C
88
98
60
ENDCHAR
STARTCHAR 220F
ENCODING 8719
SWIDTH 866 0
DWIDTH 13 0
BBX 12 14 0 -2
BITMAP
FFF0
7060
3060
3060
3060
3060
3060
3060
3060
3060
3060
3060
7060
F8F0
ENDCHAR
STARTCHAR 2211
ENCODING 8721
SWIDTH 733 0
DWIDTH 11 0
BBX 10 13 1 -1
BITMAP
FF80
C080
6080
3000
1800
1800
0C00
0800
1000
1000
2040
4080
FF80
ENDCHAR
STARTCHAR 2212
ENCODING 8722
SWIDTH 1000 0
DWIDTH 15 0
BBX 9 1 3 4
BITMAP
FF80
ENDCHAR
STARTCHAR 221A
ENCODING 8730
SWIDTH 600 0
DWIDTH 9 0
BBX 8 11 1 0
BITMAP
03
02
04
04
84
44
48
28
28
18
10
ENDCHAR
STARTCHAR 221E
ENCODING 8734
SWIDTH 1000 0
DWIDTH 15 0
BBX 10 5 2 2
BITMAP
6180
9E40
8440
8A40
7180
ENDCHAR
STARTCHAR 222B
ENCODING 8747
SWIDTH 466 0
DWIDTH 7 0
BBX 5 14 1 -3
BITMAP
18
20
20
20
20
20
20
20
20
20
20
20
20
C0
ENDCHAR
STARTCHAR 2248
ENCODING 8776
SWIDTH 1000 0
DWIDTH 15 0
BBX 9 5 3 2
BITMAP
7080
8F00
0000
7880
8700
ENDCHAR
STARTCHAR 2260
ENCODING 8800
SWIDTH 1000 0
DWIDTH 15 0
BBX 9 7 3 1
BITMAP
0100
0200
FF80
0800
FF80
2000
4000
ENDCHAR
STARTCHAR 2264
ENCODING 8804
SWIDTH 1000 0
DWIDTH 15 0
BBX 9 8 3 0
BITMAP
0380
1C00
E000
E000
1C00
0380
0000
FF80
ENDCHAR
STARTCHAR 2265
ENCODING 8805
SWIDTH 1000 0
DWIDTH 15 0
BBX 9 8 3 0
BITMAP
E000
1C00
0380
0380
1C00
E000
0000
FF80
ENDCHAR
STARTCHAR 25CA
ENCODING 9674
SWIDTH 533 0
DWIDTH 8 0
BBX 6 12 1 0
BITMAP
30
30
48
48
84
84
84
84
48
48
30
30
ENDCHAR
STARTCHAR FB01
ENCODING 64257
SWIDTH 600 0
DWIDTH 9 0
BBX 7 11 1 0
BITMAP
3A
20
20
FA
22
22
22
22
22
22
22
ENDCHAR
STARTCHAR FB02
ENCODING 64258
SWIDTH 600 0
DWIDTH 9 0
BBX 7 11 1 0
BITMAP
3A
22
22
FA
22
22
22
22
22
22
22
ENDCHAR
ENDFONT
